<?xml version="1.0" ?><svg height="44px" version="1.1" viewBox="0 0 43 44" width="43px" xmlns="http://www.w3.org/2000/svg" xmlns:xlink="http://www.w3.org/1999/xlink"><title/><desc/><g fill="none" fill-rule="evenodd" id="Healtcare-Icon-Set" stroke="none" stroke-width="1"><g id="Double-Color-Line" transform="translate(-43.000000, -366.000000)"><g id="Wash-Hand_2-Color-line" transform="translate(40.000000, 364.000000)"><rect fill="#FFB3E1" fill-rule="nonzero" height="48" id="Rectangle" opacity="0" width="48" x="0" y="0"/><path d="M17.28,10.84 C17.3802581,10.0998213 18.0130642,9.54825383 18.76,9.55 L19.02,9.55 C19.6516072,9.67782967 20.1422918,10.1764285 20.26,10.81 L20.48,11.81 L22.41,11.26 L22.21,10.35 C21.9122353,8.91960816 20.777307,7.812361 19.34,7.55 C19.1469678,7.53474077 18.9530322,7.53474077 18.76,7.55 C17.8327258,7.53751603 16.9392516,7.89778791 16.28,8.55 C15.9494863,8.88221802 15.6878161,9.27642237 15.51,9.71 L17.28,10.84 Z" fill="#000000" fill-rule="nonzero" id="Path"/><path d="M44.41,13.82 C45.6618402,15.08615 45.6618402,17.12385 44.41,18.39 L41.41,21.39 C40.9793838,21.1456389 40.4949817,21.0116553 40,21 C39.5269903,21.0012459 39.0609784,21.1143223 38.64,21.33 L43,17 C43.230828,16.7693093 43.3605174,16.4563431 43.3605174,16.13 C43.3605174,15.8036569 43.230828,15.4906907 43,15.26 C42.7698534,15.0284216 42.4564881,14.8987532 42.13,14.9 C41.8039483,14.9009515 41.4913911,15.0302855 41.26,15.26 L37.26,19.26 L36.86,17.34 L43,11.17 C43.230828,10.9393093 43.3605174,10.6263431 43.3605174,10.3 C43.3605174,9.97365694 43.230828,9.66069074 43,9.43 C42.7698534,9.19842163 42.4564881,9.06875322 42.13,9.07 C41.8039483,9.07095147 41.4913911,9.20028546 41.26,9.43 L35.82,14.87 L34.92,13.44 L41.84,6.53 C42.070828,6.29930926 42.2005174,5.98634306 42.2005174,5.66 C42.2005174,5.33365694 42.070828,5.02069074 41.84,4.79 C41.6207452,4.55929856 41.3182127,4.42604022 41,4.42 C40.6715876,4.4190872 40.3571515,4.55281287 40.13,4.79 L33.13,11.79 L31.32,11.27 L36,6.53 C36.3502048,6.17433604 36.4530194,5.64336621 36.2608876,5.18268669 C36.0687559,4.72200716 35.6191374,4.42143593 35.12,4.42 C34.7915876,4.4190872 34.4771515,4.55281287 34.25,4.79 L28.58,10.46 L27,10 L25.94,10.3 L32.87,3.37 C33.5845037,2.65506071 34.5924858,2.31581607 35.5938662,2.45326045 C36.5952467,2.59070482 37.4745484,3.18898841 37.97,4.07 L38.68,3.37 C39.2845148,2.76115231 40.1070177,2.41873864 40.965,2.41873864 C41.8229823,2.41873864 42.6454852,2.76115231 43.25,3.37 C44.3324444,4.46379175 44.4994071,6.16681105 43.65,7.45 C43.9285463,7.60382777 44.1843324,7.79566735 44.41,8.02 C45.6618402,9.28614999 45.6618402,11.32385 44.41,12.59 L43.71,13.29 C43.9663692,13.4339819 44.2018778,13.6122956 44.41,13.82 Z" fill="#000000" fill-rule="nonzero" id="Path"/><path d="M37.69,27.3 C38.2681754,27.7274106 38.9711021,27.9523471 39.69,27.94 C40.8832671,27.94 41.9858914,27.3033996 42.5825249,26.27 C43.1791585,25.2366004 43.1791585,23.9633996 42.5825249,22.93 C41.9858914,21.8966004 40.8832671,21.26 39.69,21.26 C38.7356508,21.2588963 37.8275567,21.6710033 37.2,22.39 C37.3687966,21.6517836 37.4559862,20.897258 37.46,20.14 C37.46,15.8356959 34.7056991,12.0143075 30.6222777,10.653167 C26.5388563,9.29202656 22.0425824,10.6965567 19.46,14.14 C18.798487,11.4378743 16.5315906,9.42859712 13.7695909,9.09627184 C11.0075912,8.76394657 8.32877931,10.1781535 7.04518335,12.6462427 C5.76158739,15.1143318 6.14195906,18.1195492 8,20.19 C5.6649323,20.4618997 3.94416039,22.503185 4.07119047,24.8505951 C4.19822055,27.1980052 6.12922677,29.0416745 8.48,29.06" id="Path" stroke="#2ED48F" stroke-linecap="round" stroke-linejoin="round" stroke-width="2"/><path d="M18.74,21.17 C19.2330304,21.1681022 19.6959377,21.4070221 19.98,21.81 C20.3397436,22.341518 20.3397436,23.038482 19.98,23.57 L18.42,26 C18.0036261,26.6484885 17.9739199,27.472396 18.3425105,28.1491866 C18.711101,28.8259772 19.4193507,29.2479826 20.19,29.25 L34.19,29.25 C34.8693102,29.25 35.42,29.8006898 35.42,30.48 C35.42,31.1593102 34.8693102,31.71 34.19,31.71 L23.89,31.71 L23.89,33.35 L38.26,33.35 C38.8991377,33.4075705 39.388757,33.9432747 39.388757,34.585 C39.388757,35.2267253 38.8991377,35.7624295 38.26,35.82 L25.53,35.82 L25.53,37.46 L35.79,37.46 C36.4693102,37.46 37.02,38.0106898 37.02,38.69 C37.02,39.3693102 36.4693102,39.92 35.79,39.92 L23.07,39.92 L23.07,41.57 L31.69,41.57 C32.3693102,41.57 32.92,42.1206898 32.92,42.8 C32.92,43.4793102 32.3693102,44.03 31.69,44.03 L12.69,44.03 C8.58261856,44.1040689 5.16778396,40.8846214 5,36.78 C4.9177706,33.7548424 6.68340018,30.9836749 9.46,29.78 L17.67,21.57 C17.9553294,21.288939 18.3394913,21.1309659 18.74,21.13 M18.74,19.12983 L18.74,19.12983 C17.8133544,19.1208597 16.9211182,19.4806323 16.26,20.13 L8.26,28.13 C4.94906291,29.7440502 2.89091449,33.148212 3,36.83 C3.22584976,41.9850243 7.49016496,46.0372285 12.65,46.0002545 L31.65,46.0002545 C32.6610724,45.996566 33.6125802,45.5213306 34.2226742,44.7150649 C34.8327682,43.9087992 35.0314991,42.8639443 34.76,41.89 L35.76,41.89 C37.5455046,41.8900085 38.9944892,40.4454961 39,38.66 C38.9998343,38.3447633 38.9526484,38.0313145 38.86,37.73 C40.4762695,37.3890517 41.5772815,35.8867736 41.4157107,34.2428553 C41.25414,32.5989369 39.881721,31.3397573 38.23,31.32 L37.23,31.32 C37.3110843,31.0371643 37.3514897,30.7442253 37.35,30.45 C37.35,28.6661203 35.9038797,27.22 34.12,27.22 L20.12,27.22 C20.12,27.22 20.06,27.22 20.03,27.16 C20.0049854,27.1275997 20.0049854,27.0824003 20.03,27.05 L21.57,24.66 C22.3816111,23.4501753 22.3816111,21.8698247 21.57,20.66 C20.9081615,19.7390176 19.8441226,19.1921165 18.71,19.19 L18.74,19.12983 Z" fill="#000000" fill-rule="nonzero" id="Shape"/><circle cx="27" cy="22" fill="#000000" fill-rule="nonzero" id="Oval" r="2"/><circle cx="24" cy="6" id="Oval" r="2" stroke="#2ED48F" stroke-linecap="round" stroke-linejoin="round" stroke-width="2"/><circle cx="43" cy="31" id="Oval" r="2" stroke="#2ED48F" stroke-linecap="round" stroke-linejoin="round" stroke-width="2"/></g></g></g></svg>