<?xml version="1.0" encoding="iso-8859-1"?>
<!-- Generator: Adobe Illustrator 19.0.0, SVG Export Plug-In . SVG Version: 6.00 Build 0)  -->
<svg version="1.1" id="Layer_1" xmlns="http://www.w3.org/2000/svg" xmlns:xlink="http://www.w3.org/1999/xlink" x="0px" y="0px"
	 viewBox="0 0 512 512" style="enable-background:new 0 0 512 512;" xml:space="preserve">
<circle style="fill:#EDB2D8;" cx="256" cy="256" r="245.801"/>
<g>
	<path style="fill:#74C1F2;" d="M256,410.008c-84.921,0-154.008-69.087-154.008-154.008c0-42.069,16.652-81.361,46.888-110.64
		c10.117-9.795,26.259-9.536,36.055,0.58c9.795,10.117,9.536,26.259-0.58,36.055c-20.227,19.587-31.367,45.868-31.367,74.004
		c0,56.8,46.212,103.012,103.012,103.012S359.012,312.8,359.012,256c0-28.137-11.14-54.418-31.367-74.005
		c-10.117-9.796-10.376-25.939-0.58-36.055c9.797-10.117,25.94-10.375,36.055-0.58c30.236,29.28,46.888,68.572,46.888,110.641
		C410.008,340.921,340.921,410.008,256,410.008z"/>
	<path style="fill:#74C1F2;" d="M256,281.498c-14.082,0-25.498-11.416-25.498-25.498V86.693c0-14.082,11.416-25.498,25.498-25.498
		c14.082,0,25.498,11.416,25.498,25.498V256C281.498,270.082,270.082,281.498,256,281.498z"/>
</g>
<path d="M256,512c-68.38,0-132.667-26.628-181.02-74.98S0,324.38,0,256S26.628,123.333,74.98,74.98S187.62,0,256,0
	s132.667,26.628,181.02,74.98S512,187.62,512,256s-26.628,132.667-74.98,181.02S324.38,512,256,512z M256,20.398
	C126.089,20.398,20.398,126.089,20.398,256S126.089,491.602,256,491.602S491.602,385.911,491.602,256S385.911,20.398,256,20.398z"/>
<path d="M256,420.207c-90.544,0-164.207-73.663-164.207-164.207c0-44.855,17.754-86.75,49.992-117.968
	c14.141-13.691,36.784-13.326,50.477,0.812c13.692,14.141,13.328,36.785-0.812,50.478C173.224,206.97,163.187,230.65,163.187,256
	c0,51.178,41.635,92.813,92.813,92.813s92.813-41.635,92.813-92.813c0-25.35-10.037-49.03-28.263-66.677
	c-14.14-13.692-14.504-36.337-0.812-50.477c13.692-14.139,36.336-14.504,50.477-0.813c32.239,31.217,49.992,73.112,49.992,117.967
	C420.207,346.544,346.544,420.207,256,420.207z M166.615,148.386c-3.836,0-7.674,1.429-10.641,4.301
	c-28.233,27.34-43.783,64.031-43.783,103.313c0,79.297,64.512,143.809,143.809,143.809S399.809,335.297,399.809,256
	c0-39.282-15.55-75.973-43.784-103.313c-6.06-5.868-15.766-5.713-21.634,0.349c-5.868,6.059-5.712,15.765,0.349,21.633
	c22.229,21.524,34.471,50.409,34.471,81.332c0,62.425-50.786,113.211-113.211,113.211S142.789,318.425,142.789,256
	c0-30.923,12.242-59.807,34.471-81.333c6.06-5.868,6.216-15.573,0.348-21.634C174.612,149.942,170.615,148.386,166.615,148.386z"/>
<path d="M256,291.697c-19.683,0-35.697-16.014-35.697-35.697V86.693c0-19.683,16.014-35.697,35.697-35.697
	c19.683,0,35.697,16.014,35.697,35.697V256C291.697,275.683,275.683,291.697,256,291.697z M256,71.394
	c-8.436,0-15.299,6.863-15.299,15.299V256c0,8.436,6.863,15.299,15.299,15.299c8.436,0,15.299-6.863,15.299-15.299V86.693
	C271.299,78.257,264.436,71.394,256,71.394z"/>
<path d="M256,475.283c-5.633,0-10.199-4.566-10.199-10.199s4.566-10.199,10.199-10.199c6.149,0,12.355-0.284,18.445-0.843
	c5.613-0.521,10.575,3.614,11.09,9.223c0.515,5.61-3.614,10.575-9.223,11.09C269.604,474.971,262.769,475.283,256,475.283z"/>
<path d="M325.355,463.509c-4.208,0-8.147-2.624-9.622-6.82c-1.868-5.314,0.926-11.135,6.24-13.004
	c47.254-16.61,86.251-50.189,109.808-94.555c2.641-4.975,8.816-6.868,13.79-4.226c4.975,2.642,6.867,8.816,4.226,13.79
	c-25.965,48.902-68.958,85.919-121.059,104.233C327.618,463.321,326.477,463.509,325.355,463.509z"/>
<g>
</g>
<g>
</g>
<g>
</g>
<g>
</g>
<g>
</g>
<g>
</g>
<g>
</g>
<g>
</g>
<g>
</g>
<g>
</g>
<g>
</g>
<g>
</g>
<g>
</g>
<g>
</g>
<g>
</g>
</svg>
