<?xml version="1.0" encoding="iso-8859-1"?>
<!-- Generator: Adobe Illustrator 19.0.0, SVG Export Plug-In . SVG Version: 6.00 Build 0)  -->
<svg version="1.1" id="Layer_1" xmlns="http://www.w3.org/2000/svg" xmlns:xlink="http://www.w3.org/1999/xlink" x="0px" y="0px"
	 viewBox="0 0 512.003 512.003" style="enable-background:new 0 0 512.003 512.003;" xml:space="preserve">
<path style="fill:#F3D1BB;" d="M375.905,135.81v200.078c0,66.3-53.746,120.048-120.047,120.048s-120.048-53.747-120.048-120.048
	V135.81c0,0-10.572-113.846,119.348-128.051C255.16,7.759,370.437,9.64,375.905,135.81z"/>
<path style="fill:#E8C0A8;" d="M376.398,135.706v200.182c0,66.3-53.746,120.048-120.047,120.048L255.652,7.759
	c0,0,114.134,1.581,120.047,128.051"/>
<path style="fill:#F3D1BB;" d="M503.098,511.957H8.254v-8.51c0-101.381,82.185-183.565,183.565-183.565h127.712
	c101.381,0,183.566,82.185,183.566,183.565v8.51H503.098z"/>
<g>
	<path style="fill:#E8C0A8;" d="M311.023,319.882c106.08,0,192.075,85.994,192.075,192.075l0,0h-247.02l0.273-192.075H311.023z"/>
	<path style="fill:#E8C0A8;" d="M381.47,175.825c13.259,0,24.009,10.75,24.009,24.009c0,13.259-10.75,24.009-24.009,24.009"/>
</g>
<path style="fill:#F3D1BB;" d="M132.488,223.844c-13.26,0-24.009-10.75-24.009-24.009c0-13.26,10.75-24.009,24.009-24.009"/>
<path style="fill:#95C11F;" d="M376.398,335.888c0,66.3-53.746,120.048-120.047,120.048s-120.048-53.747-120.048-120.048
	l-0.699-56.021c0,0,37.014,11.004,72.028-8.003h96.038c0,0,38.015,17.006,72.028,0L376.398,335.888z"/>
<g>
	<path style="fill:#3AAA35;" d="M256.351,455.934c66.3,0,120.047-53.747,120.047-120.048l-0.699-64.025
		c-34.013,17.006-72.028,0-72.028,0S319.376,436.927,256.351,455.934"/>
	<rect x="287.66" y="80.03" style="fill:#3AAA35;" width="40.016" height="15.518"/>
</g>
<g>
	<rect x="400.65" y="431.922" style="fill:#1D1D1B;" width="15.518" height="80.03"/>
	
		<rect x="64.051" y="464.185" transform="matrix(-0.0056 -1 1 -0.0056 -367.2869 578.6524)" style="fill:#1D1D1B;" width="80.032" height="15.518"/>
</g>
<g>
	<path style="fill:#3AAA35;" d="M319.677,303.874c-8.84,0-16.007-7.166-16.007-16.006v-8.003c0-13.26-10.75-24.009-24.009-24.009
		c-13.259,0-24.009,10.75-24.009,24.009c0,13.259,10.75,24.009,24.009,24.009L319.677,303.874"/>
	<path style="fill:#3AAA35;" d="M192.326,303.874c8.84,0,16.006-7.166,16.006-16.006v-8.003c0-13.26,10.75-24.009,24.009-24.009
		c13.26,0,24.009,10.75,24.009,24.009c0,13.259-10.75,24.009-24.009,24.009L192.326,303.874"/>
</g>
<g>
	<circle style="fill:#E5A2A7;" cx="335.682" cy="247.85" r="16.006"/>
	<circle style="fill:#E5A2A7;" cx="175.621" cy="247.85" r="16.006"/>
</g>
<g>
	<path style="fill:#FFFFFF;" d="M182.349,99.658l-13.456-7.731c7.313-12.729,17.491-23.991,29.432-32.567l9.052,12.605
		C197.221,79.26,188.566,88.836,182.349,99.658z"/>
	<path style="fill:#FFFFFF;" d="M214.733,67.218l-7.753-13.442c5.504-3.175,11.327-5.849,17.306-7.949l5.141,14.642
		C224.352,62.251,219.408,64.522,214.733,67.218z"/>
</g>
<path style="fill:#1D1D1B;" d="M192.326,239.606c-35.17,0-63.781-28.612-63.781-63.781s28.612-63.781,63.781-63.781
	s63.781,28.612,63.781,63.781S227.495,239.606,192.326,239.606z M192.326,127.561c-26.613,0-48.263,21.65-48.263,48.263
	s21.65,48.263,48.263,48.263s48.263-21.65,48.263-48.263S218.939,127.561,192.326,127.561z"/>
<circle style="fill:#A3195B;" cx="192.329" cy="175.827" r="56.019"/>
<path style="fill:#1D1D1B;" d="M320.376,239.606c-35.168,0-63.78-28.612-63.78-63.781s28.612-63.781,63.78-63.781
	s63.78,28.612,63.78,63.781S355.545,239.606,320.376,239.606z M320.376,127.561c-26.613,0-48.262,21.65-48.262,48.263
	s21.65,48.263,48.262,48.263s48.262-21.65,48.262-48.263S346.988,127.561,320.376,127.561z"/>
<circle style="fill:#A3195B;" cx="320.382" cy="175.827" r="56.019"/>
<rect x="183.629" y="80.03" style="fill:#3AAA35;" width="40.016" height="15.518"/>
<g>
	
		<rect x="172.567" y="146.836" transform="matrix(-0.7071 -0.7071 0.7071 -0.7071 192.0027 407.1564)" style="fill:#FFFFFF;" width="15.518" height="33.954"/>
	
		<rect x="196.568" y="159.534" transform="matrix(-0.7071 -0.7071 0.7071 -0.7071 215.9927 465.1239)" style="fill:#FFFFFF;" width="15.518" height="56.59"/>
	
		<rect x="300.594" y="146.841" transform="matrix(-0.7071 -0.7071 0.7071 -0.7071 410.5545 497.6935)" style="fill:#FFFFFF;" width="15.518" height="33.954"/>
	
		<rect x="324.605" y="159.539" transform="matrix(-0.7071 -0.7071 0.7071 -0.7071 434.5622 555.6684)" style="fill:#FFFFFF;" width="15.518" height="56.59"/>
</g>
<g>
	<path style="fill:#D2948B;" d="M144.307,511.957c0-13.259,10.75-24.009,24.009-24.009s24.009,10.75,24.009,24.009"/>
	<path style="fill:#D2948B;" d="M320.376,511.957c0-13.259,10.75-24.009,24.009-24.009c13.259,0,24.01,10.75,24.01,24.009"/>
</g>
<g>
	<path style="fill:#1D1D1B;" d="M200.085,511.957h-15.518c0-8.961-7.289-16.25-16.25-16.25c-8.961,0-16.25,7.29-16.25,16.25h-15.518
		c0-17.518,14.252-31.768,31.768-31.768S200.085,494.439,200.085,511.957z"/>
	<path style="fill:#1D1D1B;" d="M376.155,511.957h-15.518c0-8.961-7.29-16.25-16.251-16.25c-8.96,0-16.25,7.29-16.25,16.25h-15.518
		c0-17.518,14.25-31.768,31.768-31.768C361.903,480.189,376.155,494.439,376.155,511.957z"/>
	<rect x="208.333" y="480.193" style="fill:#1D1D1B;" width="16.006" height="15.518"/>
	<rect x="240.341" y="488.19" style="fill:#1D1D1B;" width="16.006" height="15.518"/>
	<rect x="280.356" y="480.193" style="fill:#1D1D1B;" width="16.007" height="15.518"/>
	<rect x="312.374" y="464.178" style="fill:#1D1D1B;" width="16.007" height="15.518"/>
	<rect x="176.325" y="456.182" style="fill:#1D1D1B;" width="16.006" height="15.518"/>
	<rect x="64.276" y="400.162" style="fill:#1D1D1B;" width="16.006" height="15.518"/>
	<rect x="120.295" y="408.159" style="fill:#1D1D1B;" width="16.006" height="15.518"/>
	<rect x="104.291" y="360.137" style="fill:#1D1D1B;" width="16.006" height="15.518"/>
	<rect x="352.39" y="448.174" style="fill:#1D1D1B;" width="16.007" height="15.518"/>
	<rect x="400.412" y="360.137" style="fill:#1D1D1B;" width="16.006" height="15.518"/>
	<rect x="408.409" y="384.148" style="fill:#1D1D1B;" width="16.007" height="15.518"/>
	<rect x="432.42" y="400.162" style="fill:#1D1D1B;" width="16.006" height="15.518"/>
	<rect x="248.348" y="320.122" style="fill:#1D1D1B;" width="16.006" height="15.518"/>
	<path style="fill:#1D1D1B;" d="M383.486,321.986l0.193-90.384h0.022c17.518,0,31.768-14.25,31.768-31.768
		c0-17.479-14.189-31.704-31.655-31.766l0.086-39.99c0.072-34.19-13.187-66.347-37.337-90.548C322.413,13.329,290.285,0,256.096,0
		l0,0C185.773,0,128.44,57.211,128.29,127.533l-0.086,40.532h-0.602c-17.518,0-31.768,14.252-31.768,31.768
		s14.252,31.768,31.768,31.768h0.467l-0.193,90.83C50.27,348.574,0.495,422.224,0.495,511.957h15.518
		c0-80.954,43.538-147.649,111.872-173.071c1.608,69.093,58.617,124.809,128.467,124.809c34.107,0,66.086-13.302,90.045-37.456
		c23.322-23.512,36.412-54.635,37.032-87.861c32.692,11.829,60.197,33.172,79.957,62.178
		c21.331,31.312,32.606,69.833,32.606,111.402h15.518C511.507,421.59,461.434,347.613,383.486,321.986z M383.783,183.588
		c8.923,0.043,16.17,7.313,16.17,16.247c0,8.957-7.284,16.244-16.239,16.25L383.783,183.588z M128.101,216.085h-0.499
		c-8.961,0-16.25-7.289-16.25-16.25c0-8.961,7.29-16.25,16.25-16.25h0.568L128.101,216.085z M367.939,335.888
		c0,30.048-11.564,58.254-32.561,79.421c-21.022,21.194-49.089,32.867-79.028,32.867c-62.302,0-112.987-50.372-112.987-112.271
		l0.11-51.453c7.323,3.128,17.622,6.25,29.609,6.25c8.477,0,17.797-1.576,27.491-5.797v2.966c0,4.548-3.699,8.247-8.247,8.247
		v15.518h40.015c9.582,0,18.18-4.269,24.009-11c5.83,6.731,14.426,11,24.009,11h40.016v-15.518c-8.247,0-8.247-1.584-8.247-8.247
		v-3.166c7.281,3.043,17.354,5.997,29.019,5.997c8.304,0,17.417-1.505,26.9-5.536L367.939,335.888z M214.615,296.116
		c0.954-2.571,1.475-5.348,1.475-8.247v-8.003c0-8.961,7.289-16.25,16.25-16.25c8.961,0,16.25,7.29,16.25,16.25
		c0,8.96-7.29,16.25-16.25,16.25L214.615,296.116L214.615,296.116z M297.366,296.116H280.36c-8.96,0-16.25-7.289-16.25-16.25
		s7.29-16.25,16.25-16.25c8.961,0,16.251,7.29,16.251,16.25v8.003C296.611,289.73,296.611,292.796,297.366,296.116z
		 M368.085,267.855c-30.62,17.221-58.041-1.493-59.243-2.332l-0.087,0.123c-5.227-10.395-15.988-17.549-28.395-17.549
		c-0.583,0-1.164,0.019-1.741,0.05c0.966-2.584,1.497-5.379,1.497-8.297v-8.003h-15.518v8.003c0,4.548-3.699,8.247-8.248,8.247
		c-4.548,0-8.247-3.699-8.247-8.247v-8.003h-15.518v8.003c0,2.917,0.531,5.713,1.497,8.297c-0.577-0.031-1.158-0.05-1.742-0.05
		c-12.317,0-23.012,7.051-28.28,17.325l-0.018-0.026c-27.004,17.906-52.323,6.488-60.534,1.818l0.108-50.277
		c11.709,13.85,29.194,22.668,48.708,22.668c32.427,0,59.26-24.331,63.251-55.692h1.551c3.988,31.361,30.822,55.692,63.249,55.692
		c19.026,0,36.119-8.384,47.815-21.638L368.085,267.855z M144.062,175.825c0-26.613,21.65-48.263,48.263-48.263
		s48.263,21.65,48.263,48.263s-21.65,48.263-48.263,48.263S144.062,202.438,144.062,175.825z M368.268,181.698
		c-2.909,23.851-23.269,42.39-47.893,42.39c-26.613,0-48.262-21.65-48.262-48.263s21.65-48.263,48.262-48.263
		c24.69,0,45.097,18.64,47.917,42.584L368.268,181.698z M368.371,133.889c-11.7-13.373-28.871-21.845-47.995-21.845
		c-33.838,0-61.592,26.491-63.645,59.822h-0.759c-2.052-33.331-29.808-59.822-63.646-59.822c-19.418,0-36.826,8.733-48.533,22.466
		l0.014-6.943c0.132-61.785,50.504-112.049,112.289-112.049c30.038,0,58.266,11.71,79.484,32.973
		c21.218,21.264,32.868,49.516,32.804,79.555L368.371,133.889z"/>
</g>
<g>
</g>
<g>
</g>
<g>
</g>
<g>
</g>
<g>
</g>
<g>
</g>
<g>
</g>
<g>
</g>
<g>
</g>
<g>
</g>
<g>
</g>
<g>
</g>
<g>
</g>
<g>
</g>
<g>
</g>
</svg>
